<svg
  xmlns="http://www.w3.org/2000/svg"
  xmlns:xlink="http://www.w3.org/1999/xlink"
  width="1500"
  zoomAndPan="magnify"
  viewBox="0 0 1125 1124.99995"
  height="1500"
  preserveAspectRatio="xMidYMid meet"
  version="1.0"
>
  <defs>
    <g />
    <clipPath id="7dcc252153">
      <path
        d="M 68.203125 52 L 1056.703125 52 L 1056.703125 1072 L 68.203125 1072 Z M 68.203125 52 "
        clip-rule="nonzero"
      />
    </clipPath>
    <clipPath id="b4be6ab927">
      <path
        d="M 568 312.523438 L 657.253906 312.523438 L 657.253906 405 L 568 405 Z M 568 312.523438 "
        clip-rule="nonzero"
      />
    </clipPath>
    <clipPath id="4ae7425c7a">
      <path
        d="M 467.503906 312.523438 L 586 312.523438 L 586 441.523438 L 467.503906 441.523438 Z M 467.503906 312.523438 "
        clip-rule="nonzero"
      />
    </clipPath>
  </defs>
  <rect
    x="-112.5"
    width="1350"
    fill="none"
    y="-112.499995"
    height="1349.99994"
    fill-opacity="1"
  />
  <g clip-path="url(#7dcc252153)">
    <path
      fill="#3d3b3a"
      d="M 438.183594 67.871094 C 446.191406 65.863281 454.242188 64.050781 462.339844 62.433594 C 470.433594 60.816406 478.5625 59.394531 486.726562 58.171875 C 494.894531 56.949219 503.082031 55.925781 511.296875 55.101562 C 519.511719 54.277344 527.738281 53.652344 535.984375 53.230469 C 544.226562 52.804688 552.476562 52.582031 560.734375 52.558594 C 568.988281 52.535156 577.238281 52.710938 585.488281 53.085938 C 593.734375 53.464844 601.964844 54.042969 610.183594 54.820312 C 618.402344 55.597656 626.597656 56.574219 634.769531 57.75 C 642.941406 58.925781 651.078125 60.296875 659.183594 61.867188 C 667.289062 63.441406 675.351562 65.207031 683.367188 67.167969 C 691.386719 69.132812 699.351562 71.289062 707.265625 73.640625 C 715.179688 75.988281 723.035156 78.53125 730.824219 81.261719 C 738.613281 83.992188 746.335938 86.910156 753.984375 90.019531 C 761.632812 93.125 769.199219 96.414062 776.6875 99.890625 C 784.175781 103.363281 791.578125 107.019531 798.890625 110.851562 C 806.199219 114.6875 813.414062 118.695312 820.53125 122.878906 C 827.648438 127.066406 834.65625 131.421875 841.5625 135.945312 C 848.46875 140.472656 855.257812 145.160156 861.933594 150.015625 C 868.613281 154.871094 875.167969 159.886719 881.601562 165.058594 C 888.035156 170.234375 894.335938 175.5625 900.511719 181.042969 C 906.6875 186.519531 912.722656 192.148438 918.625 197.921875 C 924.527344 203.695312 930.285156 209.609375 935.898438 215.664062 C 941.511719 221.714844 946.976562 227.902344 952.289062 234.21875 C 957.601562 240.539062 962.757812 246.984375 967.757812 253.554688 C 972.757812 260.121094 977.597656 266.808594 982.273438 273.613281 C 986.949219 280.417969 991.453125 287.332031 995.792969 294.355469 C 1000.132812 301.378906 1004.300781 308.503906 1008.292969 315.730469 C 1012.285156 322.957031 1016.101562 330.273438 1019.738281 337.6875 C 1023.378906 345.097656 1026.832031 352.59375 1030.105469 360.171875 C 1033.378906 367.753906 1036.46875 375.40625 1039.367188 383.136719 C 1042.269531 390.867188 1044.980469 398.660156 1047.503906 406.523438 C 1050.027344 414.382812 1052.359375 422.300781 1054.496094 430.277344 C 1055.289062 433.21875 1056.0625 436.21875 1056.8125 439.277344 L 1049.023438 441.992188 C 1048.230469 438.792969 1047.414062 435.59375 1046.554688 432.394531 C 1044.4375 424.488281 1042.125 416.640625 1039.625 408.851562 C 1037.125 401.058594 1034.433594 393.335938 1031.554688 385.675781 C 1028.675781 378.015625 1025.609375 370.429688 1022.359375 362.921875 C 1019.105469 355.414062 1015.675781 347.988281 1012.058594 340.644531 C 1008.445312 333.304688 1004.652344 326.058594 1000.683594 318.902344 C 996.714844 311.746094 992.574219 304.691406 988.257812 297.738281 C 983.941406 290.785156 979.460938 283.941406 974.8125 277.210938 C 970.160156 270.476562 965.347656 263.863281 960.375 257.363281 C 955.402344 250.867188 950.273438 244.496094 944.988281 238.25 C 939.699219 232 934.265625 225.886719 928.679688 219.910156 C 923.097656 213.929688 917.367188 208.089844 911.496094 202.386719 C 905.625 196.6875 899.621094 191.136719 893.476562 185.730469 C 887.332031 180.324219 881.0625 175.074219 874.664062 169.972656 C 868.261719 164.875 861.742188 159.9375 855.101562 155.15625 C 848.457031 150.378906 841.703125 145.765625 834.835938 141.316406 C 827.96875 136.867188 820.996094 132.589844 813.917969 128.484375 C 806.84375 124.378906 799.667969 120.445312 792.398438 116.691406 C 785.128906 112.933594 777.773438 109.359375 770.328125 105.964844 C 762.882812 102.566406 755.363281 99.355469 747.757812 96.328125 C 740.15625 93.304688 732.488281 90.464844 724.746094 87.8125 C 717.003906 85.160156 709.203125 82.699219 701.34375 80.429688 C 693.480469 78.160156 685.570312 76.085938 677.605469 74.203125 C 669.644531 72.324219 661.640625 70.636719 653.59375 69.148438 C 645.550781 67.65625 637.472656 66.363281 629.363281 65.269531 C 621.253906 64.175781 613.125 63.28125 604.972656 62.582031 C 596.820312 61.886719 588.65625 61.390625 580.476562 61.09375 C 572.300781 60.796875 564.121094 60.703125 555.941406 60.804688 C 547.757812 60.910156 539.585938 61.214844 531.417969 61.71875 C 523.25 62.222656 515.101562 62.925781 506.96875 63.832031 C 498.839844 64.734375 490.734375 65.835938 482.65625 67.136719 C 474.578125 68.4375 466.535156 69.933594 458.53125 71.628906 C 450.523438 73.320312 442.566406 75.210938 434.652344 77.292969 C 435.890625 74.183594 437.082031 71.070312 438.183594 67.894531 Z M 75.992188 684.089844 C 76.652344 686.714844 77.316406 689.316406 78.023438 691.945312 C 80.144531 699.867188 82.460938 707.734375 84.96875 715.546875 C 87.480469 723.355469 90.179688 731.097656 93.070312 738.777344 C 95.957031 746.453125 99.035156 754.058594 102.296875 761.582031 C 105.558594 769.109375 109.003906 776.554688 112.632812 783.910156 C 116.257812 791.269531 120.066406 798.53125 124.050781 805.703125 C 128.035156 812.875 132.191406 819.941406 136.523438 826.910156 C 140.851562 833.875 145.351562 840.734375 150.019531 847.480469 C 154.6875 854.226562 159.519531 860.851562 164.511719 867.359375 C 169.503906 873.871094 174.652344 880.253906 179.957031 886.507812 C 185.265625 892.765625 190.722656 898.886719 196.328125 904.875 C 201.933594 910.863281 207.683594 916.710938 213.578125 922.414062 C 219.472656 928.121094 225.5 933.679688 231.667969 939.089844 C 237.832031 944.5 244.128906 949.753906 250.550781 954.855469 C 256.976562 959.957031 263.523438 964.898438 270.1875 969.675781 C 276.855469 974.457031 283.636719 979.070312 290.527344 983.515625 C 297.421875 987.964844 304.417969 992.238281 311.523438 996.34375 C 318.625 1000.445312 325.824219 1004.375 333.121094 1008.125 C 340.414062 1011.875 347.796875 1015.441406 355.269531 1018.828125 C 362.738281 1022.21875 370.289062 1025.417969 377.917969 1028.4375 C 385.542969 1031.453125 393.242188 1034.28125 401.007812 1036.921875 C 408.773438 1039.558594 416.601562 1042.007812 424.488281 1044.261719 C 432.375 1046.519531 440.3125 1048.578125 448.300781 1050.445312 C 456.289062 1052.308594 464.316406 1053.976562 472.386719 1055.449219 C 480.457031 1056.921875 488.558594 1058.191406 496.6875 1059.265625 C 504.820312 1060.339844 512.976562 1061.214844 521.148438 1061.886719 C 529.324219 1062.5625 537.511719 1063.035156 545.710938 1063.304688 C 553.910156 1063.578125 562.109375 1063.648438 570.308594 1063.515625 C 578.511719 1063.386719 586.707031 1063.054688 594.890625 1062.519531 C 603.074219 1061.988281 611.242188 1061.253906 619.394531 1060.320312 C 627.542969 1059.386719 635.664062 1058.253906 643.757812 1056.921875 C 651.851562 1055.585938 659.90625 1054.058594 667.925781 1052.328125 C 675.945312 1050.601562 683.917969 1048.675781 691.839844 1046.558594 C 690.5625 1049.667969 689.324219 1052.800781 688.179688 1055.980469 C 680.160156 1058.023438 672.097656 1059.867188 663.988281 1061.519531 C 655.878906 1063.167969 647.734375 1064.621094 639.558594 1065.871094 C 631.378906 1067.125 623.175781 1068.179688 614.945312 1069.03125 C 606.714844 1069.886719 598.46875 1070.539062 590.207031 1070.992188 C 581.945312 1071.441406 573.675781 1071.691406 565.402344 1071.742188 C 557.125 1071.792969 548.855469 1071.640625 540.589844 1071.285156 C 532.324219 1070.933594 524.070312 1070.378906 515.828125 1069.621094 C 507.589844 1068.867188 499.375 1067.910156 491.179688 1066.753906 C 482.988281 1065.597656 474.828125 1064.242188 466.699219 1062.691406 C 458.570312 1061.136719 450.488281 1059.386719 442.445312 1057.441406 C 434.402344 1055.492188 426.414062 1053.351562 418.476562 1051.015625 C 410.539062 1048.679688 402.660156 1046.152344 394.847656 1043.429688 C 387.03125 1040.710938 379.289062 1037.800781 371.617188 1034.707031 C 363.941406 1031.609375 356.351562 1028.328125 348.835938 1024.859375 C 341.324219 1021.394531 333.898438 1017.746094 326.5625 1013.917969 C 319.226562 1010.089844 311.988281 1006.082031 304.847656 1001.902344 C 297.707031 997.722656 290.675781 993.367188 283.746094 988.84375 C 276.816406 984.320312 270.003906 979.632812 263.300781 974.777344 C 256.601562 969.921875 250.023438 964.90625 243.566406 959.730469 C 237.113281 954.554688 230.785156 949.222656 224.589844 943.738281 C 218.394531 938.253906 212.332031 932.625 206.410156 926.84375 C 200.488281 921.066406 194.710938 915.144531 189.078125 909.085938 C 183.445312 903.023438 177.960938 896.828125 172.628906 890.503906 C 167.296875 884.175781 162.121094 877.722656 157.101562 871.140625 C 152.085938 864.5625 147.230469 857.863281 142.539062 851.046875 C 137.847656 844.230469 133.324219 837.304688 128.96875 830.269531 C 124.613281 823.230469 120.433594 816.09375 116.425781 808.851562 C 112.421875 801.613281 108.589844 794.28125 104.941406 786.851562 C 101.292969 779.425781 97.824219 771.914062 94.542969 764.320312 C 91.257812 756.722656 88.160156 749.054688 85.25 741.308594 C 82.339844 733.5625 79.617188 725.75 77.089844 717.871094 C 74.558594 709.992188 72.222656 702.054688 70.078125 694.0625 C 69.4375 691.65625 68.820312 689.230469 68.203125 686.824219 Z M 75.992188 684.089844 "
      fill-opacity="1"
      fill-rule="evenodd"
    />
  </g>
  <g fill="#000000" fill-opacity="1">
    <g transform="translate(179.047948, 602.687736)">
      <g>
        <path
          d="M 94.90625 -85.234375 L 94.90625 0 L 78.78125 0 L 78.78125 -39.046875 L 52.078125 -1.109375 L 51.84375 -1.109375 L 26.140625 -36.609375 L 26.140625 0 L 10.5625 0 L 10.5625 -85.234375 L 10.6875 -85.234375 L 52.1875 -26.375 L 94.6875 -85.234375 Z M 94.90625 -85.234375 "
        />
      </g>
    </g>
  </g>
  <g fill="#000000" fill-opacity="1">
    <g transform="translate(373.522573, 602.687736)">
      <g>
        <path
          d="M 51.078125 -16.015625 L 23.921875 -16.015625 L 17.25 0 L 1.328125 0 L 38.28125 -85.125 L 39.171875 -85.125 L 76.109375 0 L 57.40625 0 Z M 45.734375 -29.59375 L 37.828125 -49.515625 L 29.59375 -29.59375 Z M 45.734375 -29.59375 "
        />
      </g>
    </g>
  </g>
  <g fill="#000000" fill-opacity="1">
    <g transform="translate(539.966133, 602.687736)">
      <g>
        <path
          d="M 54.75 0 L 37.5 -26.03125 L 26.703125 -26.03125 L 26.703125 0 L 10.5625 0 L 10.5625 -81.890625 L 35.375 -81.890625 C 45.539062 -81.890625 53.421875 -79.421875 59.015625 -74.484375 C 64.617188 -69.554688 67.421875 -62.828125 67.421875 -54.296875 C 67.421875 -49.253906 66.363281 -44.523438 64.25 -40.109375 C 62.132812 -35.691406 58.890625 -32.222656 54.515625 -29.703125 L 73.546875 0 Z M 26.703125 -41.609375 L 38.171875 -41.609375 C 42.546875 -41.609375 45.734375 -42.890625 47.734375 -45.453125 C 49.734375 -48.015625 50.734375 -50.773438 50.734375 -53.734375 C 50.734375 -56.703125 49.878906 -59.539062 48.171875 -62.25 C 46.472656 -64.957031 43.175781 -66.3125 38.28125 -66.3125 L 26.703125 -66.3125 Z M 26.703125 -41.609375 "
        />
      </g>
    </g>
  </g>
  <g fill="#000000" fill-opacity="1">
    <g transform="translate(705.297345, 602.687736)">
      <g>
        <path
          d="M 26.703125 -81.890625 L 26.703125 -15.578125 L 65.203125 -15.578125 L 65.203125 0 L 10.5625 0 L 10.5625 -81.890625 Z M 26.703125 -81.890625 "
        />
      </g>
    </g>
  </g>
  <g fill="#000000" fill-opacity="1">
    <g transform="translate(865.623014, 602.687736)">
      <g>
        <path
          d="M 78.671875 -81.890625 L 47.953125 -25.484375 L 47.953125 0 L 31.828125 0 L 31.828125 -25.484375 L 1.671875 -81.890625 L 21.578125 -81.890625 L 40.390625 -44.0625 L 58.75 -81.890625 Z M 78.671875 -81.890625 "
        />
      </g>
    </g>
  </g>
  <g fill="#000000" fill-opacity="1">
    <g transform="translate(407.150849, 751.000451)">
      <g>
        <path
          d="M 4.8125 -35 L 14.765625 -35 C 19.148438 -35 22.773438 -34.132812 25.640625 -32.40625 C 28.515625 -30.675781 30.609375 -28.445312 31.921875 -25.71875 C 33.234375 -23 33.890625 -20.097656 33.890625 -17.015625 C 33.890625 -13.617188 33.097656 -10.628906 31.515625 -8.046875 C 29.929688 -5.472656 27.804688 -3.488281 25.140625 -2.09375 C 22.484375 -0.695312 19.582031 0 16.4375 0 L 4.8125 0 Z M 15.4375 -5.390625 C 17.9375 -5.390625 20.140625 -5.851562 22.046875 -6.78125 C 23.953125 -7.707031 25.441406 -9.078125 26.515625 -10.890625 C 27.585938 -12.703125 28.125 -14.875 28.125 -17.40625 C 28.125 -20.15625 27.535156 -22.453125 26.359375 -24.296875 C 25.191406 -26.140625 23.703125 -27.492188 21.890625 -28.359375 C 20.085938 -29.234375 18.222656 -29.671875 16.296875 -29.671875 L 10.4375 -29.671875 L 10.4375 -5.390625 Z M 15.4375 -5.390625 "
        />
      </g>
    </g>
  </g>
  <g fill="#000000" fill-opacity="1">
    <g transform="translate(462.960953, 751.000451)">
      <g>
        <path
          d="M 10.4375 -35 L 10.4375 0 L 4.8125 0 L 4.8125 -35 Z M 10.4375 -35 "
        />
      </g>
    </g>
  </g>
  <g fill="#000000" fill-opacity="1">
    <g transform="translate(497.433001, 751.000451)">
      <g>
        <path
          d="M 32.640625 -3.21875 C 31.679688 -2.320312 30.003906 -1.492188 27.609375 -0.734375 C 25.222656 0.015625 23.039062 0.390625 21.0625 0.390625 C 17.375 0.390625 14.132812 -0.34375 11.34375 -1.8125 C 8.550781 -3.289062 6.398438 -5.320312 4.890625 -7.90625 C 3.390625 -10.488281 2.640625 -13.414062 2.640625 -16.6875 C 2.640625 -20.625 3.445312 -24.003906 5.0625 -26.828125 C 6.6875 -29.648438 8.867188 -31.78125 11.609375 -33.21875 C 14.347656 -34.664062 17.351562 -35.390625 20.625 -35.390625 C 22.644531 -35.390625 24.5625 -35.15625 26.375 -34.6875 C 28.1875 -34.21875 29.78125 -33.601562 31.15625 -32.84375 L 29.328125 -27.640625 C 28.367188 -28.222656 27.09375 -28.722656 25.5 -29.140625 C 23.914062 -29.554688 22.53125 -29.765625 21.34375 -29.765625 C 17.34375 -29.765625 14.1875 -28.65625 11.875 -26.4375 C 9.5625 -24.226562 8.40625 -21.132812 8.40625 -17.15625 C 8.40625 -14.789062 8.941406 -12.703125 10.015625 -10.890625 C 11.097656 -9.078125 12.609375 -7.671875 14.546875 -6.671875 C 16.484375 -5.679688 18.703125 -5.1875 21.203125 -5.1875 C 22.328125 -5.1875 23.398438 -5.289062 24.421875 -5.5 C 25.453125 -5.707031 26.316406 -6.003906 27.015625 -6.390625 L 27.015625 -12.21875 L 20.4375 -12.21875 L 20.4375 -17.59375 L 32.640625 -17.59375 Z M 32.640625 -3.21875 "
        />
      </g>
    </g>
  </g>
  <g fill="#000000" fill-opacity="1">
    <g transform="translate(553.002824, 751.000451)">
      <g>
        <path
          d="M 10.4375 -35 L 10.4375 0 L 4.8125 0 L 4.8125 -35 Z M 10.4375 -35 "
        />
      </g>
    </g>
  </g>
  <g fill="#000000" fill-opacity="1">
    <g transform="translate(587.474863, 751.000451)">
      <g>
        <path
          d="M 25.71875 -35 L 25.71875 -29.609375 L 16.6875 -29.609375 L 16.6875 0 L 11.109375 0 L 11.109375 -29.609375 L 2.3125 -29.609375 L 2.3125 -35 Z M 25.71875 -35 "
        />
      </g>
    </g>
  </g>
  <g fill="#000000" fill-opacity="1">
    <g transform="translate(634.730524, 751.000451)">
      <g>
        <path
          d="M 22.78125 -8.21875 L 10.046875 -8.21875 L 6.6875 0 L 1.15625 0 L 16.640625 -36.4375 L 16.96875 -36.4375 L 32.453125 0 L 26.015625 0 Z M 20.90625 -13.03125 L 16.53125 -24.09375 L 12.015625 -13.03125 Z M 20.90625 -13.03125 "
        />
      </g>
    </g>
  </g>
  <g fill="#000000" fill-opacity="1">
    <g transform="translate(687.56099, 751.000451)">
      <g>
        <path
          d="M 10.4375 -35 L 10.4375 -5.390625 L 27.6875 -5.390625 L 27.6875 0 L 4.8125 0 L 4.8125 -35 Z M 10.4375 -35 "
        />
      </g>
    </g>
  </g>
  <g fill="#000000" fill-opacity="1">
    <g transform="translate(337.717261, 816.250446)">
      <g>
        <path
          d="M 40.140625 -36.25 L 40.140625 0 L 34.5625 0 L 34.5625 -20.234375 L 22.3125 -2.84375 L 22.21875 -2.84375 L 10.234375 -19.421875 L 10.234375 0 L 4.8125 0 L 4.8125 -36.25 L 4.859375 -36.25 L 22.3125 -11.53125 L 40.046875 -36.25 Z M 40.140625 -36.25 "
        />
      </g>
    </g>
  </g>
  <g fill="#000000" fill-opacity="1">
    <g transform="translate(401.889609, 816.250446)">
      <g>
        <path
          d="M 22.78125 -8.21875 L 10.046875 -8.21875 L 6.6875 0 L 1.15625 0 L 16.640625 -36.4375 L 16.96875 -36.4375 L 32.453125 0 L 26.015625 0 Z M 20.90625 -13.03125 L 16.53125 -24.09375 L 12.015625 -13.03125 Z M 20.90625 -13.03125 "
        />
      </g>
    </g>
  </g>
  <g fill="#000000" fill-opacity="1">
    <g transform="translate(454.720084, 816.250446)">
      <g>
        <path
          d="M 23.9375 0 L 16.0625 -12.15625 L 10.4375 -12.15625 L 10.4375 0 L 4.8125 0 L 4.8125 -35 L 14.65625 -35 C 18.570312 -35 21.707031 -34.003906 24.0625 -32.015625 C 26.414062 -30.035156 27.59375 -27.28125 27.59375 -23.75 C 27.59375 -21.601562 27.132812 -19.609375 26.21875 -17.765625 C 25.3125 -15.921875 23.878906 -14.503906 21.921875 -13.515625 L 30.4375 0 Z M 10.4375 -17.546875 L 15.4375 -17.546875 C 17.675781 -17.546875 19.300781 -18.160156 20.3125 -19.390625 C 21.320312 -20.628906 21.828125 -22.019531 21.828125 -23.5625 C 21.828125 -24.457031 21.632812 -25.359375 21.25 -26.265625 C 20.863281 -27.179688 20.207031 -27.96875 19.28125 -28.625 C 18.351562 -29.28125 17.132812 -29.609375 15.625 -29.609375 L 10.4375 -29.609375 Z M 10.4375 -17.546875 "
        />
      </g>
    </g>
  </g>
  <g fill="#000000" fill-opacity="1">
    <g transform="translate(506.156848, 816.250446)">
      <g>
        <path
          d="M 10.34375 -19.8125 L 11.109375 -20.90625 L 24.28125 -35 L 31.484375 -35 L 17.015625 -19.71875 L 32.015625 0 L 24.90625 0 L 12.9375 -16.15625 L 10.484375 -13.75 L 10.484375 0 L 4.8125 0 L 4.8125 -35 L 10.484375 -35 L 10.484375 -21.59375 Z M 10.34375 -19.8125 "
        />
      </g>
    </g>
  </g>
  <g fill="#000000" fill-opacity="1">
    <g transform="translate(558.506732, 816.250446)">
      <g>
        <path
          d="M 28.03125 -35 L 28.03125 -29.609375 L 10.4375 -29.609375 L 10.4375 -20.28125 L 26.109375 -20.28125 L 26.109375 -14.90625 L 10.4375 -14.90625 L 10.4375 -5.390625 L 28.703125 -5.390625 L 28.703125 0 L 4.8125 0 L 4.8125 -35 Z M 28.03125 -35 "
        />
      </g>
    </g>
  </g>
  <g fill="#000000" fill-opacity="1">
    <g transform="translate(609.366801, 816.250446)">
      <g>
        <path
          d="M 25.71875 -35 L 25.71875 -29.609375 L 16.6875 -29.609375 L 16.6875 0 L 11.109375 0 L 11.109375 -29.609375 L 2.3125 -29.609375 L 2.3125 -35 Z M 25.71875 -35 "
        />
      </g>
    </g>
  </g>
  <g fill="#000000" fill-opacity="1">
    <g transform="translate(656.622462, 816.250446)">
      <g>
        <path
          d="M 10.4375 -35 L 10.4375 0 L 4.8125 0 L 4.8125 -35 Z M 10.4375 -35 "
        />
      </g>
    </g>
  </g>
  <g fill="#000000" fill-opacity="1">
    <g transform="translate(691.094501, 816.250446)">
      <g>
        <path
          d="M 35.71875 -35 L 35.71875 1.25 L 35.578125 1.25 L 10.34375 -23.21875 L 10.484375 0 L 4.8125 0 L 4.8125 -36.203125 L 5.09375 -36.203125 L 30.234375 -11.4375 L 30.140625 -35 Z M 35.71875 -35 "
        />
      </g>
    </g>
  </g>
  <g fill="#000000" fill-opacity="1">
    <g transform="translate(750.893493, 816.250446)">
      <g>
        <path
          d="M 32.640625 -3.21875 C 31.679688 -2.320312 30.003906 -1.492188 27.609375 -0.734375 C 25.222656 0.015625 23.039062 0.390625 21.0625 0.390625 C 17.375 0.390625 14.132812 -0.34375 11.34375 -1.8125 C 8.550781 -3.289062 6.398438 -5.320312 4.890625 -7.90625 C 3.390625 -10.488281 2.640625 -13.414062 2.640625 -16.6875 C 2.640625 -20.625 3.445312 -24.003906 5.0625 -26.828125 C 6.6875 -29.648438 8.867188 -31.78125 11.609375 -33.21875 C 14.347656 -34.664062 17.351562 -35.390625 20.625 -35.390625 C 22.644531 -35.390625 24.5625 -35.15625 26.375 -34.6875 C 28.1875 -34.21875 29.78125 -33.601562 31.15625 -32.84375 L 29.328125 -27.640625 C 28.367188 -28.222656 27.09375 -28.722656 25.5 -29.140625 C 23.914062 -29.554688 22.53125 -29.765625 21.34375 -29.765625 C 17.34375 -29.765625 14.1875 -28.65625 11.875 -26.4375 C 9.5625 -24.226562 8.40625 -21.132812 8.40625 -17.15625 C 8.40625 -14.789062 8.941406 -12.703125 10.015625 -10.890625 C 11.097656 -9.078125 12.609375 -7.671875 14.546875 -6.671875 C 16.484375 -5.679688 18.703125 -5.1875 21.203125 -5.1875 C 22.328125 -5.1875 23.398438 -5.289062 24.421875 -5.5 C 25.453125 -5.707031 26.316406 -6.003906 27.015625 -6.390625 L 27.015625 -12.21875 L 20.4375 -12.21875 L 20.4375 -17.59375 L 32.640625 -17.59375 Z M 32.640625 -3.21875 "
        />
      </g>
    </g>
  </g>
  <g clip-path="url(#b4be6ab927)">
    <path
      fill="#231916"
      d="M 581.382812 379.800781 L 600.507812 337.4375 L 630.339844 404.003906 L 657.253906 404.003906 L 616.089844 312.613281 L 586.210938 312.613281 L 568.09375 352.199219 Z M 581.382812 379.800781 "
      fill-opacity="1"
      fill-rule="evenodd"
    />
  </g>
  <g clip-path="url(#4ae7425c7a)">
    <path
      fill="#231916"
      d="M 536.730469 312.613281 L 506.851562 312.613281 L 467.503906 404.003906 L 494.945312 404.003906 L 523.34375 337.4375 L 572.921875 441.433594 L 585.304688 414.019531 Z M 536.730469 312.613281 "
      fill-opacity="1"
      fill-rule="evenodd"
    />
  </g>
</svg>
